<svg width="3257" height="3076" viewBox="0 0 3257 3076" fill="none" xmlns="http://www.w3.org/2000/svg">
<g clip-path="url(#clip0_2_4)">
<path d="M-58.584 1148.97C-21.0708 1150.96 66.5434 1202.71 121.48 1158.54C176.416 1114.38 140.616 977.938 205.11 936.967C269.605 895.996 370.063 1008.92 431.054 961.884C492.044 914.844 428.52 743.744 497.866 711.177C567.212 678.609 691.335 832.525 763.915 805.56C836.496 778.594 782.566 624.114 846.252 581.743C909.938 539.372 1001.34 636.613 1069.61 602.178C1137.88 567.743 1107.83 454.625 1173.94 416.455C1240.05 378.286 1322.45 459.934 1386.94 418.963C1451.44 377.993 1412.01 248.629 1483.51 219.796C1555.01 190.963 1667.82 325.271 1730.16 280.566C1792.49 235.861 1720.94 50.8489 1782.74 5.20984C1844.54 -40.4293 1959.06 96.8668 2026.79 61.4982C2094.52 26.1296 2090.95 -117.464 2107.84 -164.559" stroke="url(#paint0_linear_2_4)" stroke-width="2" stroke-linecap="round"/>
<path d="M1100.62 3156.76C1138.13 3158.76 1225.74 3210.5 1280.68 3166.34C1335.62 3122.17 1299.82 2985.73 1364.31 2944.76C1428.8 2903.79 1529.26 3016.72 1590.25 2969.68C1651.24 2922.64 1587.72 2751.54 1657.07 2718.97C1726.41 2686.4 1850.53 2840.32 1923.12 2813.35C1995.7 2786.39 1941.77 2631.91 2005.45 2589.54C2069.14 2547.16 2160.54 2644.41 2228.81 2609.97C2297.08 2575.54 2267.03 2462.42 2333.14 2424.25C2399.25 2386.08 2481.65 2467.73 2546.14 2426.76C2610.64 2385.79 2571.21 2256.42 2642.71 2227.59C2714.21 2198.76 2827.02 2333.06 2889.36 2288.36C2951.69 2243.65 2880.14 2058.64 2941.94 2013C3003.74 1967.36 3118.26 2104.66 3185.99 2069.29C3253.72 2033.92 3250.15 1890.33 3267.04 1843.23" stroke="url(#paint1_linear_2_4)" stroke-width="2" stroke-linecap="round"/>
<path d="M1059.22 3085.05C1096.73 3087.05 1184.34 3138.8 1239.28 3094.63C1294.22 3050.46 1258.42 2914.02 1322.91 2873.05C1387.41 2832.08 1487.86 2945.01 1548.85 2897.97C1609.84 2850.93 1546.32 2679.83 1615.67 2647.26C1685.01 2614.7 1809.13 2768.61 1881.72 2741.65C1954.3 2714.68 1900.37 2560.2 1964.05 2517.83C2027.74 2475.46 2119.14 2572.7 2187.41 2538.26C2255.68 2503.83 2225.63 2390.71 2291.74 2352.54C2357.85 2314.37 2440.25 2396.02 2504.74 2355.05C2569.24 2314.08 2529.81 2184.72 2601.31 2155.88C2672.81 2127.05 2785.62 2261.36 2847.96 2216.65C2910.29 2171.95 2838.74 1986.94 2900.54 1941.3C2962.34 1895.66 3076.86 2032.95 3144.59 1997.58C3212.32 1962.22 3208.75 1818.62 3225.64 1771.53" stroke="url(#paint2_linear_2_4)" stroke-width="2" stroke-linecap="round"/>
<path d="M1017.82 3013.35C1055.33 3015.34 1142.94 3067.09 1197.88 3022.92C1252.82 2978.76 1217.02 2842.32 1281.51 2801.35C1346.01 2760.38 1446.46 2873.3 1507.45 2826.26C1568.44 2779.22 1504.92 2608.12 1574.27 2575.56C1643.61 2542.99 1767.73 2696.9 1840.32 2669.94C1912.9 2642.97 1858.97 2488.49 1922.65 2446.12C1986.34 2403.75 2077.74 2500.99 2146.01 2466.56C2214.28 2432.12 2184.23 2319 2250.34 2280.83C2316.45 2242.66 2398.85 2324.31 2463.34 2283.34C2527.84 2242.37 2488.41 2113.01 2559.91 2084.18C2631.41 2055.34 2744.22 2189.65 2806.56 2144.95C2868.89 2100.24 2797.34 1915.23 2859.14 1869.59C2920.94 1823.95 3035.46 1961.25 3103.19 1925.88C3170.92 1890.51 3167.35 1746.92 3184.24 1699.82" stroke="url(#paint3_linear_2_4)" stroke-width="2" stroke-linecap="round"/>
<path d="M976.416 2941.64C1013.93 2943.63 1101.54 2995.38 1156.48 2951.22C1211.42 2907.05 1175.62 2770.61 1240.11 2729.64C1304.61 2688.67 1405.06 2801.6 1466.05 2754.56C1527.04 2707.52 1463.52 2536.42 1532.87 2503.85C1602.21 2471.28 1726.33 2625.2 1798.92 2598.23C1871.5 2571.27 1817.57 2416.79 1881.25 2374.42C1944.94 2332.04 2036.34 2429.29 2104.61 2394.85C2172.88 2360.42 2142.83 2247.3 2208.94 2209.13C2275.05 2170.96 2357.45 2252.61 2421.94 2211.64C2486.44 2170.67 2447.01 2041.3 2518.51 2012.47C2590.01 1983.64 2702.82 2117.94 2765.16 2073.24C2827.49 2028.53 2755.94 1843.52 2817.74 1797.88C2879.54 1752.24 2994.06 1889.54 3061.79 1854.17C3129.52 1818.8 3125.95 1675.21 3142.84 1628.11" stroke="url(#paint4_linear_2_4)" stroke-width="2" stroke-linecap="round"/>
<path d="M935.016 2869.93C972.529 2871.93 1060.14 2923.68 1115.08 2879.51C1170.02 2835.34 1134.22 2698.9 1198.71 2657.93C1263.21 2616.96 1363.66 2729.89 1424.65 2682.85C1485.64 2635.81 1422.12 2464.71 1491.47 2432.14C1560.81 2399.58 1684.93 2553.49 1757.52 2526.53C1830.1 2499.56 1776.17 2345.08 1839.85 2302.71C1903.54 2260.34 1994.94 2357.58 2063.21 2323.14C2131.48 2288.71 2101.43 2175.59 2167.54 2137.42C2233.65 2099.25 2316.05 2180.9 2380.54 2139.93C2445.04 2098.96 2405.61 1969.59 2477.11 1940.76C2548.61 1911.93 2661.42 2046.24 2723.76 2001.53C2786.09 1956.83 2714.54 1771.81 2776.34 1726.18C2838.14 1680.54 2952.66 1817.83 3020.39 1782.46C3088.12 1747.1 3084.55 1603.5 3101.44 1556.41" stroke="url(#paint5_linear_2_4)" stroke-width="2" stroke-linecap="round"/>
<path d="M893.616 2798.23C931.129 2800.22 1018.74 2851.97 1073.68 2807.8C1128.62 2763.64 1092.82 2627.2 1157.31 2586.23C1221.81 2545.26 1322.26 2658.18 1383.25 2611.14C1444.24 2564.1 1380.72 2393 1450.07 2360.44C1519.41 2327.87 1643.53 2481.78 1716.12 2454.82C1788.7 2427.85 1734.77 2273.37 1798.45 2231C1862.14 2188.63 1953.54 2285.87 2021.81 2251.44C2090.08 2217 2060.03 2103.88 2126.14 2065.71C2192.25 2027.54 2274.65 2109.19 2339.14 2068.22C2403.64 2027.25 2364.21 1897.89 2435.71 1869.05C2507.21 1840.22 2620.02 1974.53 2682.36 1929.82C2744.69 1885.12 2673.14 1700.11 2734.94 1654.47C2796.74 1608.83 2911.26 1746.13 2978.99 1710.76C3046.72 1675.39 3043.15 1531.79 3060.04 1484.7" stroke="url(#paint6_linear_2_4)" stroke-width="2" stroke-linecap="round"/>
<path d="M852.216 2726.52C889.729 2728.51 977.343 2780.26 1032.28 2736.1C1087.22 2691.93 1051.42 2555.49 1115.91 2514.52C1180.41 2473.55 1280.86 2586.48 1341.85 2539.44C1402.84 2492.4 1339.32 2321.3 1408.67 2288.73C1478.01 2256.16 1602.13 2410.08 1674.72 2383.11C1747.3 2356.15 1693.37 2201.67 1757.05 2159.29C1820.74 2116.92 1912.14 2214.16 1980.41 2179.73C2048.68 2145.29 2018.63 2032.18 2084.74 1994.01C2150.85 1955.84 2233.25 2037.49 2297.74 1996.52C2362.24 1955.54 2322.81 1826.18 2394.31 1797.35C2465.81 1768.52 2578.62 1902.82 2640.96 1858.12C2703.29 1813.41 2631.74 1628.4 2693.54 1582.76C2755.34 1537.12 2869.86 1674.42 2937.59 1639.05C3005.32 1603.68 3001.75 1460.09 3018.64 1412.99" stroke="url(#paint7_linear_2_4)" stroke-width="2" stroke-linecap="round"/>
<path d="M810.816 2654.81C848.329 2656.81 935.943 2708.55 990.88 2664.39C1045.82 2620.22 1010.02 2483.78 1074.51 2442.81C1139.01 2401.84 1239.46 2514.77 1300.45 2467.73C1361.44 2420.69 1297.92 2249.59 1367.27 2217.02C1436.61 2184.45 1560.73 2338.37 1633.32 2311.4C1705.9 2284.44 1651.97 2129.96 1715.65 2087.59C1779.34 2045.22 1870.74 2142.46 1939.01 2108.02C2007.28 2073.59 1977.23 1960.47 2043.34 1922.3C2109.45 1884.13 2191.85 1965.78 2256.34 1924.81C2320.84 1883.84 2281.41 1754.47 2352.91 1725.64C2424.41 1696.81 2537.22 1831.12 2599.56 1786.41C2661.89 1741.71 2590.34 1556.69 2652.14 1511.06C2713.94 1465.42 2828.46 1602.71 2896.19 1567.34C2963.92 1531.97 2960.35 1388.38 2977.24 1341.29" stroke="url(#paint8_linear_2_4)" stroke-width="2" stroke-linecap="round"/>
<path d="M769.416 2583.11C806.929 2585.1 894.543 2636.85 949.48 2592.68C1004.42 2548.51 968.616 2412.08 1033.11 2371.11C1097.61 2330.13 1198.06 2443.06 1259.05 2396.02C1320.04 2348.98 1256.52 2177.88 1325.87 2145.32C1395.21 2112.75 1519.33 2266.66 1591.92 2239.7C1664.5 2212.73 1610.57 2058.25 1674.25 2015.88C1737.94 1973.51 1829.34 2070.75 1897.61 2036.32C1965.88 2001.88 1935.83 1888.76 2001.94 1850.59C2068.05 1812.42 2150.45 1894.07 2214.94 1853.1C2279.44 1812.13 2240.01 1682.77 2311.51 1653.93C2383.02 1625.1 2495.82 1759.41 2558.16 1714.7C2620.49 1670 2548.94 1484.99 2610.74 1439.35C2672.54 1393.71 2787.06 1531.01 2854.79 1495.64C2922.52 1460.27 2918.95 1316.67 2935.84 1269.58" stroke="url(#paint9_linear_2_4)" stroke-width="2" stroke-linecap="round"/>
<path d="M728.016 2511.4C765.529 2513.39 853.143 2565.14 908.08 2520.97C963.016 2476.81 927.216 2340.37 991.71 2299.4C1056.21 2258.43 1156.66 2371.35 1217.65 2324.31C1278.64 2277.28 1215.12 2106.18 1284.47 2073.61C1353.81 2041.04 1477.93 2194.96 1550.52 2167.99C1623.1 2141.03 1569.17 1986.55 1632.85 1944.17C1696.54 1901.8 1787.94 1999.04 1856.21 1964.61C1924.48 1930.17 1894.43 1817.06 1960.54 1778.89C2026.65 1740.72 2109.05 1822.37 2173.54 1781.39C2238.04 1740.42 2198.61 1611.06 2270.11 1582.23C2341.61 1553.39 2454.42 1687.7 2516.76 1643C2579.09 1598.29 2507.54 1413.28 2569.34 1367.64C2631.14 1322 2745.66 1459.3 2813.39 1423.93C2881.12 1388.56 2877.55 1244.97 2894.44 1197.87" stroke="url(#paint10_linear_2_4)" stroke-width="2" stroke-linecap="round"/>
<path d="M686.616 2439.69C724.129 2441.69 811.743 2493.43 866.68 2449.27C921.616 2405.1 885.816 2268.66 950.31 2227.69C1014.8 2186.72 1115.26 2299.65 1176.25 2252.61C1237.24 2205.57 1173.72 2034.47 1243.07 2001.9C1312.41 1969.33 1436.53 2123.25 1509.12 2096.28C1581.7 2069.32 1527.77 1914.84 1591.45 1872.47C1655.14 1830.1 1746.54 1927.34 1814.81 1892.9C1883.08 1858.47 1853.03 1745.35 1919.14 1707.18C1985.25 1669.01 2067.65 1750.66 2132.14 1709.69C2196.64 1668.72 2157.21 1539.35 2228.71 1510.52C2300.21 1481.69 2413.02 1616 2475.36 1571.29C2537.69 1526.58 2466.14 1341.57 2527.94 1295.93C2589.74 1250.29 2704.26 1387.59 2771.99 1352.22C2839.72 1316.85 2836.15 1173.26 2853.04 1126.16" stroke="url(#paint11_linear_2_4)" stroke-width="2" stroke-linecap="round"/>
<path d="M645.216 2367.98C682.729 2369.98 770.343 2421.73 825.28 2377.56C880.216 2333.39 844.416 2196.96 908.91 2155.98C973.405 2115.01 1073.86 2227.94 1134.85 2180.9C1195.84 2133.86 1132.32 1962.76 1201.67 1930.19C1271.01 1897.63 1395.13 2051.54 1467.72 2024.58C1540.3 1997.61 1486.37 1843.13 1550.05 1800.76C1613.74 1758.39 1705.14 1855.63 1773.41 1821.2C1841.68 1786.76 1811.63 1673.64 1877.74 1635.47C1943.85 1597.3 2026.25 1678.95 2090.74 1637.98C2155.24 1597.01 2115.81 1467.65 2187.31 1438.81C2258.81 1409.98 2371.62 1544.29 2433.96 1499.58C2496.29 1454.88 2424.74 1269.87 2486.54 1224.23C2548.34 1178.59 2662.86 1315.88 2730.59 1280.52C2798.32 1245.15 2794.75 1101.55 2811.64 1054.46" stroke="url(#paint12_linear_2_4)" stroke-width="2" stroke-linecap="round"/>
<path d="M603.816 2296.28C641.329 2298.27 728.943 2350.02 783.88 2305.85C838.816 2261.69 803.016 2125.25 867.51 2084.28C932.005 2043.31 1032.46 2156.23 1093.45 2109.19C1154.44 2062.15 1090.92 1891.05 1160.27 1858.49C1229.61 1825.92 1353.73 1979.84 1426.32 1952.87C1498.9 1925.9 1444.97 1771.42 1508.65 1729.05C1572.34 1686.68 1663.74 1783.92 1732.01 1749.49C1800.28 1715.05 1770.23 1601.94 1836.34 1563.77C1902.45 1525.6 1984.85 1607.24 2049.34 1566.27C2113.84 1525.3 2074.41 1395.94 2145.91 1367.11C2217.41 1338.27 2330.22 1472.58 2392.56 1427.88C2454.89 1383.17 2383.34 1198.16 2445.14 1152.52C2506.94 1106.88 2621.46 1244.18 2689.19 1208.81C2756.92 1173.44 2753.35 1029.85 2770.24 982.751" stroke="url(#paint13_linear_2_4)" stroke-width="2" stroke-linecap="round"/>
<path d="M562.416 2224.57C599.929 2226.57 687.543 2278.31 742.48 2234.15C797.416 2189.98 761.616 2053.54 826.11 2012.57C890.605 1971.6 991.063 2084.53 1052.05 2037.49C1113.04 1990.45 1049.52 1819.35 1118.87 1786.78C1188.21 1754.21 1312.33 1908.13 1384.92 1881.16C1457.5 1854.2 1403.57 1699.72 1467.25 1657.35C1530.94 1614.98 1622.34 1712.22 1690.61 1677.78C1758.88 1643.35 1728.83 1530.23 1794.94 1492.06C1861.05 1453.89 1943.45 1535.54 2007.94 1494.57C2072.44 1453.6 2033.01 1324.23 2104.51 1295.4C2176.01 1266.57 2288.82 1400.87 2351.16 1356.17C2413.49 1311.46 2341.94 1126.45 2403.74 1080.81C2465.54 1035.17 2580.06 1172.47 2647.79 1137.1C2715.52 1101.73 2711.95 958.139 2728.84 911.044" stroke="url(#paint14_linear_2_4)" stroke-width="2" stroke-linecap="round"/>
<path d="M521.016 2152.86C558.529 2154.86 646.143 2206.61 701.08 2162.44C756.016 2118.27 720.216 1981.83 784.71 1940.86C849.205 1899.89 949.663 2012.82 1010.65 1965.78C1071.64 1918.74 1008.12 1747.64 1077.47 1715.07C1146.81 1682.51 1270.93 1836.42 1343.52 1809.46C1416.1 1782.49 1362.17 1628.01 1425.85 1585.64C1489.54 1543.27 1580.94 1640.51 1649.21 1606.07C1717.48 1571.64 1687.43 1458.52 1753.54 1420.35C1819.65 1382.18 1902.05 1463.83 1966.54 1422.86C2031.04 1381.89 1991.61 1252.53 2063.11 1223.69C2134.61 1194.86 2247.42 1329.17 2309.76 1284.46C2372.09 1239.76 2300.54 1054.75 2362.34 1009.11C2424.14 963.467 2538.66 1100.76 2606.39 1065.39C2674.12 1030.03 2670.55 886.433 2687.44 839.337" stroke="url(#paint15_linear_2_4)" stroke-width="2" stroke-linecap="round"/>
<path d="M479.616 2081.16C517.129 2083.15 604.743 2134.9 659.68 2090.73C714.616 2046.57 678.816 1910.13 743.31 1869.16C807.805 1828.19 908.263 1941.11 969.254 1894.07C1030.24 1847.03 966.72 1675.93 1036.07 1643.37C1105.41 1610.8 1229.53 1764.71 1302.12 1737.75C1374.7 1710.78 1320.77 1556.3 1384.45 1513.93C1448.14 1471.56 1539.54 1568.8 1607.81 1534.37C1676.08 1499.93 1646.03 1386.81 1712.14 1348.64C1778.25 1310.48 1860.65 1392.12 1925.14 1351.15C1989.64 1310.18 1950.21 1180.82 2021.71 1151.99C2093.21 1123.15 2206.02 1257.46 2268.36 1212.76C2330.69 1168.05 2259.14 983.039 2320.94 937.4C2382.74 891.76 2497.26 1029.06 2564.99 993.688C2632.72 958.319 2629.15 814.726 2646.04 767.63" stroke="url(#paint16_linear_2_4)" stroke-width="2" stroke-linecap="round"/>
<path d="M438.216 2009.45C475.729 2011.44 563.343 2063.19 618.28 2019.03C673.216 1974.86 637.416 1838.42 701.91 1797.45C766.405 1756.48 866.863 1869.41 927.854 1822.37C988.844 1775.33 925.32 1604.23 994.666 1571.66C1064.01 1539.09 1188.13 1693.01 1260.72 1666.04C1333.3 1639.08 1279.37 1484.6 1343.05 1442.23C1406.74 1399.85 1498.14 1497.1 1566.41 1462.66C1634.68 1428.23 1604.63 1315.11 1670.74 1276.94C1736.85 1238.77 1819.25 1320.42 1883.74 1279.45C1948.24 1238.48 1908.81 1109.11 1980.31 1080.28C2051.81 1051.45 2164.62 1185.75 2226.96 1141.05C2289.29 1096.34 2217.74 911.332 2279.54 865.693C2341.34 820.054 2455.86 957.35 2523.59 921.981C2591.32 886.613 2587.75 743.019 2604.64 695.924" stroke="url(#paint17_linear_2_4)" stroke-width="2" stroke-linecap="round"/>
<path d="M396.816 1937.74C434.329 1939.74 521.943 1991.49 576.88 1947.32C631.816 1903.15 596.016 1766.71 660.51 1725.74C725.005 1684.77 825.463 1797.7 886.454 1750.66C947.444 1703.62 883.92 1532.52 953.266 1499.95C1022.61 1467.39 1146.73 1621.3 1219.32 1594.34C1291.9 1567.37 1237.97 1412.89 1301.65 1370.52C1365.34 1328.15 1456.74 1425.39 1525.01 1390.95C1593.28 1356.52 1563.23 1243.4 1629.34 1205.23C1695.45 1167.06 1777.85 1248.71 1842.34 1207.74C1906.84 1166.77 1867.41 1037.4 1938.91 1008.57C2010.41 979.739 2123.22 1114.05 2185.56 1069.34C2247.89 1024.64 2176.34 839.625 2238.14 793.986C2299.94 748.347 2414.46 885.643 2482.19 850.274C2549.92 814.906 2546.35 671.312 2563.24 624.217" stroke="url(#paint18_linear_2_4)" stroke-width="2" stroke-linecap="round"/>
<path d="M355.416 1866.04C392.929 1868.03 480.543 1919.78 535.48 1875.61C590.416 1831.45 554.616 1695.01 619.111 1654.04C683.605 1613.07 784.063 1725.99 845.054 1678.95C906.044 1631.91 842.52 1460.81 911.866 1428.25C981.212 1395.68 1105.33 1549.59 1177.92 1522.63C1250.5 1495.66 1196.57 1341.18 1260.25 1298.81C1323.94 1256.44 1415.34 1353.68 1483.61 1319.25C1551.88 1284.81 1521.83 1171.69 1587.94 1133.52C1654.05 1095.35 1736.45 1177 1800.94 1136.03C1865.44 1095.06 1826.01 965.698 1897.51 936.865C1969.01 908.032 2081.82 1042.34 2144.16 997.635C2206.49 952.93 2134.94 767.918 2196.74 722.279C2258.54 676.64 2373.06 813.936 2440.79 778.567C2508.52 743.199 2504.95 599.605 2521.84 552.51" stroke="url(#paint19_linear_2_4)" stroke-width="2" stroke-linecap="round"/>
<path d="M314.016 1794.33C351.529 1796.32 439.143 1848.07 494.08 1803.91C549.016 1759.74 513.216 1623.3 577.71 1582.33C642.205 1541.36 742.663 1654.29 803.654 1607.25C864.644 1560.21 801.119 1389.11 870.466 1356.54C939.812 1323.97 1063.93 1477.89 1136.52 1450.92C1209.1 1423.96 1155.17 1269.48 1218.85 1227.1C1282.54 1184.73 1373.94 1281.97 1442.21 1247.54C1510.48 1213.1 1480.43 1099.99 1546.54 1061.82C1612.65 1023.65 1695.05 1105.3 1759.54 1064.33C1824.04 1023.35 1784.61 893.991 1856.11 865.158C1927.61 836.325 2040.42 970.633 2102.76 925.928C2165.09 881.223 2093.54 696.211 2155.34 650.572C2217.14 604.933 2331.66 742.229 2399.39 706.86C2467.12 671.492 2463.55 527.898 2480.44 480.803" stroke="url(#paint20_linear_2_4)" stroke-width="2" stroke-linecap="round"/>
<path d="M272.616 1722.62C310.129 1724.62 397.743 1776.36 452.68 1732.2C507.616 1688.03 471.816 1551.59 536.31 1510.62C600.805 1469.65 701.263 1582.58 762.254 1535.54C823.244 1488.5 759.719 1317.4 829.066 1284.83C898.412 1252.26 1022.53 1406.18 1095.12 1379.21C1167.7 1352.25 1113.77 1197.77 1177.45 1155.4C1241.14 1113.03 1332.54 1210.27 1400.81 1175.83C1469.08 1141.4 1439.03 1028.28 1505.14 990.11C1571.25 951.941 1653.65 1033.59 1718.14 992.619C1782.64 951.648 1743.21 822.284 1814.71 793.451C1886.21 764.618 1999.02 898.927 2061.36 854.221C2123.69 809.516 2052.14 624.504 2113.94 578.865C2175.74 533.226 2290.26 670.522 2357.99 635.153C2425.72 599.785 2422.15 456.191 2439.04 409.096" stroke="url(#paint21_linear_2_4)" stroke-width="2" stroke-linecap="round"/>
<path d="M231.216 1650.92C268.729 1652.91 356.343 1704.66 411.28 1660.49C466.216 1616.32 430.416 1479.89 494.91 1438.92C559.405 1397.94 659.863 1510.87 720.854 1463.83C781.844 1416.79 718.319 1245.69 787.666 1213.13C857.012 1180.56 981.135 1334.47 1053.72 1307.51C1126.3 1280.54 1072.37 1126.06 1136.05 1083.69C1199.74 1041.32 1291.14 1138.56 1359.41 1104.13C1427.68 1069.69 1397.63 956.573 1463.74 918.403C1529.85 880.234 1612.25 961.882 1676.74 920.912C1741.24 879.941 1701.81 750.577 1773.31 721.744C1844.81 692.911 1957.62 827.22 2019.96 782.514C2082.29 737.809 2010.74 552.797 2072.54 507.158C2134.34 461.519 2248.86 598.815 2316.59 563.446C2384.32 528.078 2380.75 384.484 2397.64 337.389" stroke="url(#paint22_linear_2_4)" stroke-width="2" stroke-linecap="round"/>
<path d="M189.816 1579.21C227.329 1581.2 314.943 1632.95 369.88 1588.78C424.816 1544.62 389.016 1408.18 453.51 1367.21C518.005 1326.24 618.463 1439.16 679.454 1392.13C740.444 1345.09 676.92 1173.99 746.266 1141.42C815.612 1108.85 939.735 1262.77 1012.32 1235.8C1084.9 1208.84 1030.97 1054.36 1094.65 1011.98C1158.34 969.613 1249.74 1066.85 1318.01 1032.42C1386.28 997.984 1356.23 884.866 1422.34 846.697C1488.45 808.527 1570.85 890.176 1635.34 849.205C1699.84 808.234 1660.41 678.87 1731.91 650.037C1803.41 621.205 1916.22 755.513 1978.56 710.807C2040.89 666.102 1969.34 481.09 2031.14 435.451C2092.94 389.812 2207.46 527.108 2275.19 491.74C2342.92 456.371 2339.35 312.777 2356.24 265.682" stroke="url(#paint23_linear_2_4)" stroke-width="2" stroke-linecap="round"/>
<path d="M148.416 1507.5C185.929 1509.5 273.543 1561.24 328.48 1517.08C383.416 1472.91 347.616 1336.47 412.11 1295.5C476.605 1254.53 577.063 1367.46 638.054 1320.42C699.044 1273.38 635.52 1102.28 704.866 1069.71C774.212 1037.14 898.335 1191.06 970.915 1164.09C1043.5 1137.13 989.566 982.649 1053.25 940.277C1116.94 897.906 1208.34 995.147 1276.61 960.712C1344.88 926.277 1314.83 813.159 1380.94 774.99C1447.05 736.82 1529.45 818.469 1593.94 777.498C1658.44 736.527 1619.01 607.163 1690.51 578.33C1762.01 549.498 1874.82 683.806 1937.16 639.1C1999.49 594.395 1927.94 409.383 1989.74 363.744C2051.54 318.105 2166.06 455.401 2233.79 420.033C2301.52 384.664 2297.95 241.07 2314.84 193.975" stroke="url(#paint24_linear_2_4)" stroke-width="2" stroke-linecap="round"/>
<path d="M107.016 1435.79C144.529 1437.79 232.143 1489.54 287.08 1445.37C342.016 1401.2 306.216 1264.77 370.71 1223.79C435.205 1182.82 535.663 1295.75 596.654 1248.71C657.644 1201.67 594.119 1030.57 663.466 998.005C732.812 965.437 856.935 1119.35 929.515 1092.39C1002.1 1065.42 948.166 910.942 1011.85 868.57C1075.54 826.199 1166.94 923.44 1235.21 889.005C1303.48 854.57 1273.43 741.453 1339.54 703.283C1405.65 665.113 1488.05 746.762 1552.54 705.791C1617.04 664.82 1577.61 535.456 1649.11 506.624C1720.61 477.791 1833.42 612.099 1895.76 567.394C1958.09 522.688 1886.54 337.677 1948.34 292.037C2010.14 246.398 2124.66 383.694 2192.39 348.326C2260.12 312.957 2256.55 169.364 2273.44 122.268" stroke="url(#paint25_linear_2_4)" stroke-width="2" stroke-linecap="round"/>
<path d="M65.616 1364.09C103.129 1366.08 190.743 1417.83 245.68 1373.66C300.616 1329.5 264.816 1193.06 329.31 1152.09C393.805 1111.12 494.263 1224.04 555.254 1177C616.244 1129.96 552.72 958.865 622.066 926.298C691.412 893.73 815.535 1047.65 888.115 1020.68C960.696 993.715 906.766 839.235 970.452 796.864C1034.14 754.492 1125.54 851.733 1193.81 817.298C1262.08 782.863 1232.03 669.746 1298.14 631.576C1364.25 593.406 1446.65 675.055 1511.14 634.084C1575.64 593.113 1536.21 463.749 1607.71 434.917C1679.21 406.084 1792.02 540.392 1854.36 495.687C1916.69 450.981 1845.14 265.97 1906.94 220.331C1968.74 174.691 2083.26 311.988 2150.99 276.619C2218.72 241.25 2215.15 97.6567 2232.04 50.5613" stroke="url(#paint26_linear_2_4)" stroke-width="2" stroke-linecap="round"/>
<path d="M24.2159 1292.38C61.7292 1294.38 149.343 1346.12 204.28 1301.96C259.216 1257.79 223.416 1121.35 287.91 1080.38C352.405 1039.41 452.863 1152.34 513.854 1105.3C574.844 1058.26 511.319 887.158 580.666 854.591C650.012 822.023 774.135 975.939 846.715 948.973C919.296 922.008 865.366 767.528 929.052 725.157C992.738 682.785 1084.14 780.026 1152.41 745.591C1220.68 711.157 1190.63 598.039 1256.74 559.869C1322.85 521.699 1405.25 603.348 1469.74 562.377C1534.24 521.407 1494.81 392.043 1566.31 363.21C1637.81 334.377 1750.62 468.685 1812.96 423.98C1875.29 379.274 1803.74 194.263 1865.54 148.624C1927.34 102.985 2041.86 240.281 2109.59 204.912C2177.32 169.543 2173.75 25.9498 2190.64 -21.1456" stroke="url(#paint27_linear_2_4)" stroke-width="2" stroke-linecap="round"/>
<path d="M-17.1841 1220.67C20.3292 1222.67 107.943 1274.42 162.88 1230.25C217.816 1186.08 182.016 1049.64 246.51 1008.67C311.005 967.703 411.463 1080.63 472.454 1033.59C533.444 986.551 469.92 815.451 539.266 782.884C608.612 750.316 732.735 904.232 805.315 877.266C877.896 850.301 823.966 695.821 887.652 653.45C951.338 611.078 1042.74 708.319 1111.01 673.885C1179.28 639.45 1149.23 526.332 1215.34 488.162C1281.45 449.993 1363.85 531.641 1428.34 490.67C1492.84 449.7 1453.41 320.336 1524.91 291.503C1596.41 262.67 1709.22 396.978 1771.56 352.273C1833.89 307.567 1762.34 122.556 1824.14 76.9167C1885.94 31.2776 2000.46 168.574 2068.19 133.205C2135.92 97.8365 2132.35 -45.7571 2149.24 -92.8525" stroke="url(#paint28_linear_2_4)" stroke-width="2" stroke-linecap="round"/>
<rect y="1282.5" width="2560" height="2070" transform="rotate(-30 0 1282.5)" fill="url(#paint29_linear_2_4)"/>
<rect y="1282.5" width="2560" height="2070" transform="rotate(-30 0 1282.5)" fill="url(#paint30_linear_2_4)"/>
</g>
<defs>
<linearGradient id="paint0_linear_2_4" x1="-51296.1" y1="-87346.4" x2="-25151.1" y2="-102441" gradientUnits="userSpaceOnUse">
<stop stop-color="#1DD3B0"/>
<stop offset="1" stop-color="#AFFC41"/>
</linearGradient>
<linearGradient id="paint1_linear_2_4" x1="-50136.9" y1="-85338.6" x2="-23991.9" y2="-100433" gradientUnits="userSpaceOnUse">
<stop stop-color="#1DD3B0"/>
<stop offset="1" stop-color="#AFFC41"/>
</linearGradient>
<linearGradient id="paint2_linear_2_4" x1="-50178.3" y1="-85410.3" x2="-24033.3" y2="-100505" gradientUnits="userSpaceOnUse">
<stop stop-color="#1DD3B0"/>
<stop offset="1" stop-color="#AFFC41"/>
</linearGradient>
<linearGradient id="paint3_linear_2_4" x1="-50219.7" y1="-85482" x2="-24074.7" y2="-100577" gradientUnits="userSpaceOnUse">
<stop stop-color="#1DD3B0"/>
<stop offset="1" stop-color="#AFFC41"/>
</linearGradient>
<linearGradient id="paint4_linear_2_4" x1="-50261.1" y1="-85553.8" x2="-24116.1" y2="-100649" gradientUnits="userSpaceOnUse">
<stop stop-color="#1DD3B0"/>
<stop offset="1" stop-color="#AFFC41"/>
</linearGradient>
<linearGradient id="paint5_linear_2_4" x1="-50302.5" y1="-85625.5" x2="-24157.5" y2="-100720" gradientUnits="userSpaceOnUse">
<stop stop-color="#1DD3B0"/>
<stop offset="1" stop-color="#AFFC41"/>
</linearGradient>
<linearGradient id="paint6_linear_2_4" x1="-50343.9" y1="-85697.2" x2="-24198.9" y2="-100792" gradientUnits="userSpaceOnUse">
<stop stop-color="#1DD3B0"/>
<stop offset="1" stop-color="#AFFC41"/>
</linearGradient>
<linearGradient id="paint7_linear_2_4" x1="-50385.3" y1="-85768.9" x2="-24240.3" y2="-100864" gradientUnits="userSpaceOnUse">
<stop stop-color="#1DD3B0"/>
<stop offset="1" stop-color="#AFFC41"/>
</linearGradient>
<linearGradient id="paint8_linear_2_4" x1="-50426.7" y1="-85840.6" x2="-24281.7" y2="-100935" gradientUnits="userSpaceOnUse">
<stop stop-color="#1DD3B0"/>
<stop offset="1" stop-color="#AFFC41"/>
</linearGradient>
<linearGradient id="paint9_linear_2_4" x1="-50468.1" y1="-85912.3" x2="-24323.1" y2="-101007" gradientUnits="userSpaceOnUse">
<stop stop-color="#1DD3B0"/>
<stop offset="1" stop-color="#AFFC41"/>
</linearGradient>
<linearGradient id="paint10_linear_2_4" x1="-50509.5" y1="-85984" x2="-24364.5" y2="-101079" gradientUnits="userSpaceOnUse">
<stop stop-color="#1DD3B0"/>
<stop offset="1" stop-color="#AFFC41"/>
</linearGradient>
<linearGradient id="paint11_linear_2_4" x1="-50550.9" y1="-86055.7" x2="-24405.9" y2="-101151" gradientUnits="userSpaceOnUse">
<stop stop-color="#1DD3B0"/>
<stop offset="1" stop-color="#AFFC41"/>
</linearGradient>
<linearGradient id="paint12_linear_2_4" x1="-50592.3" y1="-86127.4" x2="-24447.3" y2="-101222" gradientUnits="userSpaceOnUse">
<stop stop-color="#1DD3B0"/>
<stop offset="1" stop-color="#AFFC41"/>
</linearGradient>
<linearGradient id="paint13_linear_2_4" x1="-50633.7" y1="-86199.1" x2="-24488.7" y2="-101294" gradientUnits="userSpaceOnUse">
<stop stop-color="#1DD3B0"/>
<stop offset="1" stop-color="#AFFC41"/>
</linearGradient>
<linearGradient id="paint14_linear_2_4" x1="-50675.1" y1="-86270.8" x2="-24530.1" y2="-101366" gradientUnits="userSpaceOnUse">
<stop stop-color="#1DD3B0"/>
<stop offset="1" stop-color="#AFFC41"/>
</linearGradient>
<linearGradient id="paint15_linear_2_4" x1="-50716.5" y1="-86342.5" x2="-24571.5" y2="-101437" gradientUnits="userSpaceOnUse">
<stop stop-color="#1DD3B0"/>
<stop offset="1" stop-color="#AFFC41"/>
</linearGradient>
<linearGradient id="paint16_linear_2_4" x1="-50757.9" y1="-86414.2" x2="-24612.9" y2="-101509" gradientUnits="userSpaceOnUse">
<stop stop-color="#1DD3B0"/>
<stop offset="1" stop-color="#AFFC41"/>
</linearGradient>
<linearGradient id="paint17_linear_2_4" x1="-50799.3" y1="-86485.9" x2="-24654.3" y2="-101581" gradientUnits="userSpaceOnUse">
<stop stop-color="#1DD3B0"/>
<stop offset="1" stop-color="#AFFC41"/>
</linearGradient>
<linearGradient id="paint18_linear_2_4" x1="-50840.7" y1="-86557.7" x2="-24695.7" y2="-101652" gradientUnits="userSpaceOnUse">
<stop stop-color="#1DD3B0"/>
<stop offset="1" stop-color="#AFFC41"/>
</linearGradient>
<linearGradient id="paint19_linear_2_4" x1="-50882.1" y1="-86629.4" x2="-24737.1" y2="-101724" gradientUnits="userSpaceOnUse">
<stop stop-color="#1DD3B0"/>
<stop offset="1" stop-color="#AFFC41"/>
</linearGradient>
<linearGradient id="paint20_linear_2_4" x1="-50923.5" y1="-86701.1" x2="-24778.5" y2="-101796" gradientUnits="userSpaceOnUse">
<stop stop-color="#1DD3B0"/>
<stop offset="1" stop-color="#AFFC41"/>
</linearGradient>
<linearGradient id="paint21_linear_2_4" x1="-50964.9" y1="-86772.8" x2="-24819.9" y2="-101868" gradientUnits="userSpaceOnUse">
<stop stop-color="#1DD3B0"/>
<stop offset="1" stop-color="#AFFC41"/>
</linearGradient>
<linearGradient id="paint22_linear_2_4" x1="-51006.3" y1="-86844.5" x2="-24861.3" y2="-101939" gradientUnits="userSpaceOnUse">
<stop stop-color="#1DD3B0"/>
<stop offset="1" stop-color="#AFFC41"/>
</linearGradient>
<linearGradient id="paint23_linear_2_4" x1="-51047.7" y1="-86916.2" x2="-24902.7" y2="-102011" gradientUnits="userSpaceOnUse">
<stop stop-color="#1DD3B0"/>
<stop offset="1" stop-color="#AFFC41"/>
</linearGradient>
<linearGradient id="paint24_linear_2_4" x1="-51089.1" y1="-86987.9" x2="-24944.1" y2="-102083" gradientUnits="userSpaceOnUse">
<stop stop-color="#1DD3B0"/>
<stop offset="1" stop-color="#AFFC41"/>
</linearGradient>
<linearGradient id="paint25_linear_2_4" x1="-51130.5" y1="-87059.6" x2="-24985.5" y2="-102154" gradientUnits="userSpaceOnUse">
<stop stop-color="#1DD3B0"/>
<stop offset="1" stop-color="#AFFC41"/>
</linearGradient>
<linearGradient id="paint26_linear_2_4" x1="-51171.9" y1="-87131.3" x2="-25026.9" y2="-102226" gradientUnits="userSpaceOnUse">
<stop stop-color="#1DD3B0"/>
<stop offset="1" stop-color="#AFFC41"/>
</linearGradient>
<linearGradient id="paint27_linear_2_4" x1="-51213.3" y1="-87203" x2="-25068.3" y2="-102298" gradientUnits="userSpaceOnUse">
<stop stop-color="#1DD3B0"/>
<stop offset="1" stop-color="#AFFC41"/>
</linearGradient>
<linearGradient id="paint28_linear_2_4" x1="-51254.7" y1="-87274.7" x2="-25109.7" y2="-102370" gradientUnits="userSpaceOnUse">
<stop stop-color="#1DD3B0"/>
<stop offset="1" stop-color="#AFFC41"/>
</linearGradient>
<linearGradient id="paint29_linear_2_4" x1="1280" y1="1282.5" x2="1280" y2="3352.5" gradientUnits="userSpaceOnUse">
<stop stop-color="#010D0A"/>
<stop offset="1" stop-color="#010D0A" stop-opacity="0"/>
</linearGradient>
<linearGradient id="paint30_linear_2_4" x1="1280" y1="1282.5" x2="1280" y2="3352.5" gradientUnits="userSpaceOnUse">
<stop stop-color="#010D0A" stop-opacity="0"/>
<stop offset="1" stop-color="#010D0A"/>
</linearGradient>
<clipPath id="clip0_2_4">
<rect width="2565" height="2070" fill="white" transform="translate(0 1282.5) rotate(-30)"/>
</clipPath>
</defs>
</svg>
